<svg width="32" height="32" viewBox="0 0 35.71 35.711" xmlns="http://www.w3.org/2000/svg">
  <path d="M30.154,3.586c-1.586-0.873-3.379-1.334-5.186-1.334c-2.646,0-5.162,0.968-7.111,2.696c-1.953-1.729-4.474-2.696-7.119-2.696c-1.801,0-3.593,0.461-5.187,1.336C2.127,5.484,0,9.088,0,12.994c0,1.102,0.172,2.193,0.51,3.248c1.773,7.637,15.946,16.607,16.551,16.986c0.244,0.154,0.521,0.23,0.798,0.23c0.276,0,0.554-0.078,0.797-0.23c0.605-0.379,14.769-9.352,16.546-16.987c0.336-1.054,0.508-2.146,0.508-3.248C35.708,9.088,33.582,5.484,30.154,3.586z" stroke="current" stroke-width="2" fill="none" />
</svg>
